<mxfile host="65bd71144e">
    <diagram id="us7tJTSx1ViuAD7pCAWM" name="LSTM单元典型结构图">
        <mxGraphModel dx="1173" dy="766" grid="1" gridSize="10" guides="1" tooltips="1" connect="1" arrows="1" fold="1" page="1" pageScale="1" pageWidth="850" pageHeight="1100" math="0" shadow="0">
            <root>
                <mxCell id="0"/>
                <mxCell id="1" parent="0"/>
                <mxCell id="2" value="" style="rounded=0;whiteSpace=wrap;html=1;" vertex="1" parent="1">
                    <mxGeometry x="120" y="90" width="120" height="270" as="geometry"/>
                </mxCell>
                <mxCell id="3" value="" style="endArrow=classic;html=1;strokeWidth=2;" edge="1" parent="1">
                    <mxGeometry width="50" height="50" relative="1" as="geometry">
                        <mxPoint x="160" y="400" as="sourcePoint"/>
                        <mxPoint x="160" y="360" as="targetPoint"/>
                    </mxGeometry>
                </mxCell>
                <mxCell id="4" value="&lt;font style=&quot;font-size: 20px;&quot;&gt;&lt;i&gt;x&lt;sub&gt;t-1&lt;/sub&gt;&lt;/i&gt;&lt;/font&gt;" style="text;html=1;align=center;verticalAlign=middle;resizable=0;points=[];autosize=1;strokeColor=none;fillColor=none;" vertex="1" parent="1">
                    <mxGeometry x="135" y="390" width="50" height="40" as="geometry"/>
                </mxCell>
                <mxCell id="5" value="" style="endArrow=classic;html=1;strokeWidth=2;fontSize=20;" edge="1" parent="1">
                    <mxGeometry width="50" height="50" relative="1" as="geometry">
                        <mxPoint x="80" y="130" as="sourcePoint"/>
                        <mxPoint x="120" y="130" as="targetPoint"/>
                    </mxGeometry>
                </mxCell>
                <mxCell id="6" value="&lt;span style=&quot;font-size: 20px;&quot;&gt;&lt;i&gt;C&lt;sub&gt;t-2&lt;/sub&gt;&lt;/i&gt;&lt;/span&gt;" style="text;html=1;align=center;verticalAlign=middle;resizable=0;points=[];autosize=1;strokeColor=none;fillColor=none;" vertex="1" parent="1">
                    <mxGeometry x="55" y="90" width="60" height="40" as="geometry"/>
                </mxCell>
                <mxCell id="7" value="" style="endArrow=classic;html=1;strokeWidth=2;fontSize=20;" edge="1" parent="1">
                    <mxGeometry width="50" height="50" relative="1" as="geometry">
                        <mxPoint x="80" y="320" as="sourcePoint"/>
                        <mxPoint x="120" y="320" as="targetPoint"/>
                    </mxGeometry>
                </mxCell>
                <mxCell id="8" value="&lt;span style=&quot;font-size: 20px;&quot;&gt;&lt;i&gt;h&lt;sub&gt;t-2&lt;/sub&gt;&lt;/i&gt;&lt;/span&gt;" style="text;html=1;align=center;verticalAlign=middle;resizable=0;points=[];autosize=1;strokeColor=none;fillColor=none;" vertex="1" parent="1">
                    <mxGeometry x="60" y="280" width="50" height="40" as="geometry"/>
                </mxCell>
                <mxCell id="9" value="" style="endArrow=classic;html=1;strokeWidth=2;" edge="1" parent="1">
                    <mxGeometry width="50" height="50" relative="1" as="geometry">
                        <mxPoint x="200" y="90" as="sourcePoint"/>
                        <mxPoint x="200" y="50" as="targetPoint"/>
                    </mxGeometry>
                </mxCell>
                <mxCell id="10" value="&lt;font style=&quot;font-size: 20px;&quot;&gt;&lt;i&gt;h&lt;sub&gt;t-1&lt;/sub&gt;&lt;/i&gt;&lt;/font&gt;" style="text;html=1;align=center;verticalAlign=middle;resizable=0;points=[];autosize=1;strokeColor=none;fillColor=none;" vertex="1" parent="1">
                    <mxGeometry x="190" y="20" width="50" height="40" as="geometry"/>
                </mxCell>
                <mxCell id="11" value="" style="endArrow=classic;html=1;strokeWidth=2;fontSize=20;" edge="1" parent="1">
                    <mxGeometry width="50" height="50" relative="1" as="geometry">
                        <mxPoint x="240" y="130" as="sourcePoint"/>
                        <mxPoint x="280" y="130" as="targetPoint"/>
                    </mxGeometry>
                </mxCell>
                <mxCell id="12" value="" style="endArrow=classic;html=1;strokeWidth=2;fontSize=20;" edge="1" parent="1">
                    <mxGeometry width="50" height="50" relative="1" as="geometry">
                        <mxPoint x="240" y="319" as="sourcePoint"/>
                        <mxPoint x="280" y="319" as="targetPoint"/>
                    </mxGeometry>
                </mxCell>
                <mxCell id="13" value="&lt;span style=&quot;font-size: 20px;&quot;&gt;&lt;i&gt;h&lt;sub&gt;t-1&lt;/sub&gt;&lt;/i&gt;&lt;/span&gt;" style="text;html=1;align=center;verticalAlign=middle;resizable=0;points=[];autosize=1;strokeColor=none;fillColor=none;" vertex="1" parent="1">
                    <mxGeometry x="240" y="279" width="50" height="40" as="geometry"/>
                </mxCell>
                <mxCell id="14" value="&lt;span style=&quot;font-size: 20px;&quot;&gt;&lt;i&gt;C&lt;sub&gt;t-1&lt;/sub&gt;&lt;/i&gt;&lt;/span&gt;" style="rounded=0;whiteSpace=wrap;html=1;fontFamily=Helvetica;fontSize=12;fontColor=default;align=center;strokeColor=none;fillColor=none;gradientColor=none;" vertex="1" parent="1">
                    <mxGeometry x="240" y="90" width="50" height="40" as="geometry"/>
                </mxCell>
                <mxCell id="15" value="" style="rounded=0;whiteSpace=wrap;html=1;fontSize=20;" vertex="1" parent="1">
                    <mxGeometry x="280" y="90" width="430" height="270" as="geometry"/>
                </mxCell>
                <mxCell id="16" value="" style="verticalLabelPosition=bottom;verticalAlign=top;html=1;shape=mxgraph.flowchart.or;fontSize=20;" vertex="1" parent="1">
                    <mxGeometry x="320" y="110" width="40" height="40" as="geometry"/>
                </mxCell>
                <mxCell id="17" value="" style="endArrow=none;html=1;strokeWidth=2;fontSize=20;" edge="1" parent="1">
                    <mxGeometry width="50" height="50" relative="1" as="geometry">
                        <mxPoint x="280" y="130" as="sourcePoint"/>
                        <mxPoint x="320" y="130" as="targetPoint"/>
                    </mxGeometry>
                </mxCell>
                <mxCell id="18" value="" style="verticalLabelPosition=bottom;verticalAlign=top;html=1;shape=mxgraph.flowchart.or;fontSize=20;" vertex="1" parent="1">
                    <mxGeometry x="485" y="111" width="40" height="40" as="geometry"/>
                </mxCell>
                <mxCell id="19" value="" style="verticalLabelPosition=bottom;verticalAlign=top;html=1;shape=mxgraph.flowchart.or;fontSize=20;" vertex="1" parent="1">
                    <mxGeometry x="485" y="205" width="40" height="40" as="geometry"/>
                </mxCell>
                <mxCell id="20" value="" style="verticalLabelPosition=bottom;verticalAlign=top;html=1;shape=mxgraph.flowchart.or;fontSize=20;" vertex="1" parent="1">
                    <mxGeometry x="625" y="205" width="40" height="40" as="geometry"/>
                </mxCell>
                <mxCell id="21" value="" style="endArrow=classic;html=1;strokeWidth=2;" edge="1" parent="1">
                    <mxGeometry width="50" height="50" relative="1" as="geometry">
                        <mxPoint x="305" y="400" as="sourcePoint"/>
                        <mxPoint x="305" y="360" as="targetPoint"/>
                    </mxGeometry>
                </mxCell>
                <mxCell id="22" value="&lt;font style=&quot;font-size: 20px;&quot;&gt;&lt;i&gt;x&lt;sub&gt;t&lt;/sub&gt;&lt;/i&gt;&lt;/font&gt;" style="text;html=1;align=center;verticalAlign=middle;resizable=0;points=[];autosize=1;strokeColor=none;fillColor=none;" vertex="1" parent="1">
                    <mxGeometry x="285" y="390" width="40" height="40" as="geometry"/>
                </mxCell>
                <mxCell id="24" value="" style="endArrow=classic;html=1;strokeWidth=2;fontSize=20;entryX=0;entryY=0.5;entryDx=0;entryDy=0;entryPerimeter=0;exitX=0.833;exitY=0.983;exitDx=0;exitDy=0;exitPerimeter=0;" edge="1" parent="1" source="13" target="20">
                    <mxGeometry width="50" height="50" relative="1" as="geometry">
                        <mxPoint x="460" y="580" as="sourcePoint"/>
                        <mxPoint x="510" y="530" as="targetPoint"/>
                        <Array as="points">
                            <mxPoint x="590" y="320"/>
                            <mxPoint x="590" y="270"/>
                            <mxPoint x="590" y="225"/>
                        </Array>
                    </mxGeometry>
                </mxCell>
                <mxCell id="26" value="sigmoid" style="edgeLabel;html=1;align=center;verticalAlign=middle;resizable=0;points=[];fontSize=20;labelBorderColor=none;" vertex="1" connectable="0" parent="24">
                    <mxGeometry x="0.492" y="1" relative="1" as="geometry">
                        <mxPoint x="1" y="-11" as="offset"/>
                    </mxGeometry>
                </mxCell>
                <mxCell id="27" value="" style="endArrow=classic;html=1;strokeWidth=2;fontSize=20;entryX=0.5;entryY=1;entryDx=0;entryDy=0;entryPerimeter=0;" edge="1" parent="1" target="19">
                    <mxGeometry width="50" height="50" relative="1" as="geometry">
                        <mxPoint x="505" y="320" as="sourcePoint"/>
                        <mxPoint x="505" y="440" as="targetPoint"/>
                    </mxGeometry>
                </mxCell>
                <mxCell id="28" value="tanh" style="edgeLabel;html=1;align=center;verticalAlign=middle;resizable=0;points=[];fontSize=20;labelBorderColor=none;" vertex="1" connectable="0" parent="27">
                    <mxGeometry x="-0.2267" y="-1" relative="1" as="geometry">
                        <mxPoint as="offset"/>
                    </mxGeometry>
                </mxCell>
                <mxCell id="29" value="" style="endArrow=classic;html=1;strokeWidth=2;fontSize=20;entryX=0;entryY=0.5;entryDx=0;entryDy=0;entryPerimeter=0;" edge="1" parent="1" target="19">
                    <mxGeometry width="50" height="50" relative="1" as="geometry">
                        <mxPoint x="425" y="320" as="sourcePoint"/>
                        <mxPoint x="475" y="480" as="targetPoint"/>
                        <Array as="points">
                            <mxPoint x="425" y="225"/>
                        </Array>
                    </mxGeometry>
                </mxCell>
                <mxCell id="30" value="sigmoid" style="edgeLabel;html=1;align=center;verticalAlign=middle;resizable=0;points=[];fontSize=20;" vertex="1" connectable="0" parent="29">
                    <mxGeometry x="-0.6258" relative="1" as="geometry">
                        <mxPoint x="80" y="-2" as="offset"/>
                    </mxGeometry>
                </mxCell>
                <mxCell id="31" value="" style="endArrow=classic;html=1;strokeWidth=2;fontSize=20;entryX=0.5;entryY=1;entryDx=0;entryDy=0;entryPerimeter=0;" edge="1" parent="1" target="16">
                    <mxGeometry width="50" height="50" relative="1" as="geometry">
                        <mxPoint x="340" y="320" as="sourcePoint"/>
                        <mxPoint x="380" y="470" as="targetPoint"/>
                    </mxGeometry>
                </mxCell>
                <mxCell id="32" value="sigmoid" style="edgeLabel;html=1;align=center;verticalAlign=middle;resizable=0;points=[];fontSize=20;" vertex="1" connectable="0" parent="31">
                    <mxGeometry x="-0.3765" y="1" relative="1" as="geometry">
                        <mxPoint x="1" y="23" as="offset"/>
                    </mxGeometry>
                </mxCell>
                <mxCell id="33" value="" style="endArrow=classic;html=1;strokeWidth=2;fontSize=20;entryX=0;entryY=0.5;entryDx=0;entryDy=0;entryPerimeter=0;" edge="1" parent="1" target="18">
                    <mxGeometry width="50" height="50" relative="1" as="geometry">
                        <mxPoint x="360" y="130.5" as="sourcePoint"/>
                        <mxPoint x="480" y="131" as="targetPoint"/>
                    </mxGeometry>
                </mxCell>
                <mxCell id="34" value="" style="endArrow=classic;html=1;strokeWidth=2;fontSize=20;exitX=0.5;exitY=0;exitDx=0;exitDy=0;exitPerimeter=0;" edge="1" parent="1" source="19">
                    <mxGeometry width="50" height="50" relative="1" as="geometry">
                        <mxPoint x="505" y="200" as="sourcePoint"/>
                        <mxPoint x="504.5" y="151" as="targetPoint"/>
                    </mxGeometry>
                </mxCell>
                <mxCell id="35" value="" style="rounded=0;whiteSpace=wrap;html=1;" vertex="1" parent="1">
                    <mxGeometry x="750" y="90" width="120" height="270" as="geometry"/>
                </mxCell>
                <mxCell id="36" value="" style="endArrow=classic;html=1;strokeWidth=2;fontSize=20;" edge="1" parent="1">
                    <mxGeometry width="50" height="50" relative="1" as="geometry">
                        <mxPoint x="525" y="130" as="sourcePoint"/>
                        <mxPoint x="750" y="130" as="targetPoint"/>
                    </mxGeometry>
                </mxCell>
                <mxCell id="37" value="" style="endArrow=classic;html=1;strokeWidth=2;fontSize=20;" edge="1" parent="1">
                    <mxGeometry width="50" height="50" relative="1" as="geometry">
                        <mxPoint x="645" y="130" as="sourcePoint"/>
                        <mxPoint x="644.5" y="205" as="targetPoint"/>
                    </mxGeometry>
                </mxCell>
                <mxCell id="38" value="tanh" style="edgeLabel;html=1;align=center;verticalAlign=middle;resizable=0;points=[];fontSize=20;" vertex="1" connectable="0" parent="37">
                    <mxGeometry x="-0.2889" relative="1" as="geometry">
                        <mxPoint y="23" as="offset"/>
                    </mxGeometry>
                </mxCell>
                <mxCell id="39" value="&lt;i&gt;f&lt;sub&gt;t&lt;/sub&gt;&lt;/i&gt;" style="text;html=1;align=center;verticalAlign=middle;resizable=0;points=[];autosize=1;strokeColor=none;fillColor=none;fontSize=20;" vertex="1" parent="1">
                    <mxGeometry x="340" y="165" width="30" height="40" as="geometry"/>
                </mxCell>
                <mxCell id="40" value="&lt;i&gt;i&lt;sub&gt;t&lt;/sub&gt;&lt;/i&gt;" style="text;html=1;align=center;verticalAlign=middle;resizable=0;points=[];autosize=1;strokeColor=none;fillColor=none;fontSize=20;" vertex="1" parent="1">
                    <mxGeometry x="470" y="165" width="30" height="40" as="geometry"/>
                </mxCell>
                <mxCell id="42" value="&lt;i&gt;o&lt;sub&gt;t&lt;/sub&gt;&lt;/i&gt;" style="text;html=1;align=center;verticalAlign=middle;resizable=0;points=[];autosize=1;strokeColor=none;fillColor=none;fontSize=20;" vertex="1" parent="1">
                    <mxGeometry x="590" y="165" width="40" height="40" as="geometry"/>
                </mxCell>
                <mxCell id="43" value="" style="endArrow=classic;html=1;strokeWidth=2;fontSize=20;entryX=-0.008;entryY=0.853;entryDx=0;entryDy=0;entryPerimeter=0;exitX=0.5;exitY=1;exitDx=0;exitDy=0;exitPerimeter=0;" edge="1" parent="1" source="20" target="35">
                    <mxGeometry width="50" height="50" relative="1" as="geometry">
                        <mxPoint x="590" y="510" as="sourcePoint"/>
                        <mxPoint x="640" y="460" as="targetPoint"/>
                        <Array as="points">
                            <mxPoint x="645" y="320"/>
                        </Array>
                    </mxGeometry>
                </mxCell>
                <mxCell id="44" value="&lt;span style=&quot;font-size: 20px;&quot;&gt;&lt;i&gt;h&lt;sub&gt;t&lt;/sub&gt;&lt;/i&gt;&lt;/span&gt;" style="text;html=1;align=center;verticalAlign=middle;resizable=0;points=[];autosize=1;strokeColor=none;fillColor=none;" vertex="1" parent="1">
                    <mxGeometry x="710" y="280" width="40" height="40" as="geometry"/>
                </mxCell>
                <mxCell id="45" value="&lt;span style=&quot;font-size: 20px;&quot;&gt;&lt;i&gt;C&lt;sub&gt;t&lt;/sub&gt;&lt;/i&gt;&lt;/span&gt;" style="text;html=1;align=center;verticalAlign=middle;resizable=0;points=[];autosize=1;strokeColor=none;fillColor=none;" vertex="1" parent="1">
                    <mxGeometry x="710" y="90" width="40" height="40" as="geometry"/>
                </mxCell>
                <mxCell id="46" value="" style="endArrow=classic;html=1;strokeWidth=2;fontSize=20;jumpStyle=arc;" edge="1" parent="1">
                    <mxGeometry width="50" height="50" relative="1" as="geometry">
                        <mxPoint x="690" y="319" as="sourcePoint"/>
                        <mxPoint x="690" y="50" as="targetPoint"/>
                        <Array as="points">
                            <mxPoint x="690" y="210"/>
                        </Array>
                    </mxGeometry>
                </mxCell>
                <mxCell id="48" value="&lt;font style=&quot;font-size: 20px;&quot;&gt;&lt;i&gt;h&lt;sub&gt;t&lt;/sub&gt;&lt;/i&gt;&lt;/font&gt;" style="text;html=1;align=center;verticalAlign=middle;resizable=0;points=[];autosize=1;strokeColor=none;fillColor=none;" vertex="1" parent="1">
                    <mxGeometry x="690" y="20" width="40" height="40" as="geometry"/>
                </mxCell>
                <mxCell id="49" value="" style="endArrow=classic;html=1;strokeWidth=2;" edge="1" parent="1">
                    <mxGeometry width="50" height="50" relative="1" as="geometry">
                        <mxPoint x="770" y="400" as="sourcePoint"/>
                        <mxPoint x="770" y="360" as="targetPoint"/>
                    </mxGeometry>
                </mxCell>
                <mxCell id="50" value="&lt;font style=&quot;font-size: 20px;&quot;&gt;&lt;i&gt;x&lt;sub&gt;t+1&lt;/sub&gt;&lt;/i&gt;&lt;/font&gt;" style="text;html=1;align=center;verticalAlign=middle;resizable=0;points=[];autosize=1;strokeColor=none;fillColor=none;" vertex="1" parent="1">
                    <mxGeometry x="740" y="390" width="60" height="40" as="geometry"/>
                </mxCell>
                <mxCell id="51" value="" style="endArrow=classic;html=1;strokeWidth=2;fontSize=20;" edge="1" parent="1">
                    <mxGeometry width="50" height="50" relative="1" as="geometry">
                        <mxPoint x="870" y="129" as="sourcePoint"/>
                        <mxPoint x="910" y="129" as="targetPoint"/>
                    </mxGeometry>
                </mxCell>
                <mxCell id="52" value="" style="endArrow=classic;html=1;strokeWidth=2;fontSize=20;" edge="1" parent="1">
                    <mxGeometry width="50" height="50" relative="1" as="geometry">
                        <mxPoint x="870" y="318" as="sourcePoint"/>
                        <mxPoint x="910" y="318" as="targetPoint"/>
                    </mxGeometry>
                </mxCell>
                <mxCell id="53" value="&lt;span style=&quot;font-size: 20px;&quot;&gt;&lt;i&gt;h&lt;sub&gt;t+1&lt;/sub&gt;&lt;/i&gt;&lt;/span&gt;" style="text;html=1;align=center;verticalAlign=middle;resizable=0;points=[];autosize=1;strokeColor=none;fillColor=none;" vertex="1" parent="1">
                    <mxGeometry x="865" y="278" width="60" height="40" as="geometry"/>
                </mxCell>
                <mxCell id="54" value="&lt;span style=&quot;font-size: 20px;&quot;&gt;&lt;i&gt;C&lt;sub&gt;t+1&lt;/sub&gt;&lt;/i&gt;&lt;/span&gt;" style="rounded=0;whiteSpace=wrap;html=1;fontFamily=Helvetica;fontSize=12;fontColor=default;align=center;strokeColor=none;fillColor=none;gradientColor=none;" vertex="1" parent="1">
                    <mxGeometry x="870" y="89" width="50" height="40" as="geometry"/>
                </mxCell>
                <mxCell id="55" value="" style="endArrow=classic;html=1;strokeWidth=2;" edge="1" parent="1">
                    <mxGeometry width="50" height="50" relative="1" as="geometry">
                        <mxPoint x="840" y="90" as="sourcePoint"/>
                        <mxPoint x="840" y="50" as="targetPoint"/>
                    </mxGeometry>
                </mxCell>
                <mxCell id="56" value="&lt;font style=&quot;font-size: 20px;&quot;&gt;&lt;i&gt;h&lt;sub&gt;t+1&lt;/sub&gt;&lt;/i&gt;&lt;/font&gt;" style="text;html=1;align=center;verticalAlign=middle;resizable=0;points=[];autosize=1;strokeColor=none;fillColor=none;" vertex="1" parent="1">
                    <mxGeometry x="825" y="20" width="60" height="40" as="geometry"/>
                </mxCell>
                <mxCell id="57" value="" style="rounded=0;whiteSpace=wrap;html=1;labelBorderColor=none;fontSize=20;dashed=1;dashPattern=8 8;fillColor=none;strokeColor=#FF3333;strokeWidth=2;" vertex="1" parent="1">
                    <mxGeometry x="295" y="170" width="90" height="140" as="geometry"/>
                </mxCell>
                <mxCell id="58" value="" style="rounded=0;whiteSpace=wrap;html=1;labelBorderColor=none;fontSize=20;dashed=1;dashPattern=8 8;fillColor=none;strokeColor=#008A00;strokeWidth=2;" vertex="1" parent="1">
                    <mxGeometry x="390" y="170" width="220" height="140" as="geometry"/>
                </mxCell>
                <mxCell id="61" value="" style="rounded=0;whiteSpace=wrap;html=1;labelBorderColor=none;fontSize=20;dashed=1;dashPattern=8 8;fillColor=none;strokeColor=#5D00BA;strokeWidth=2;" vertex="1" parent="1">
                    <mxGeometry x="615" y="170" width="60" height="140" as="geometry"/>
                </mxCell>
                <mxCell id="62" value="" style="rounded=0;whiteSpace=wrap;html=1;labelBorderColor=none;fontSize=20;dashed=1;dashPattern=8 8;fillColor=none;strokeColor=#FFFF33;strokeWidth=2;" vertex="1" parent="1">
                    <mxGeometry x="295" y="95" width="385" height="70" as="geometry"/>
                </mxCell>
            </root>
        </mxGraphModel>
    </diagram>
</mxfile>